<svg width="22" height="27" viewBox="0 0 22 27" fill="none" xmlns="http://www.w3.org/2000/svg">
<path d="M0.988281 22.9688V11.4141C0.988281 10.2031 1.29297 9.29688 1.90234 8.69531C2.51953 8.08594 3.44141 7.78125 4.66797 7.78125H18.1094C19.3359 7.78125 20.2539 8.08594 20.8633 8.69531C21.4805 9.29688 21.7891 10.2031 21.7891 11.4141V22.9688C21.7891 24.1797 21.4805 25.0859 20.8633 25.6875C20.2539 26.2969 19.3359 26.6016 18.1094 26.6016H4.66797C3.44141 26.6016 2.51953 26.2969 1.90234 25.6875C1.29297 25.0859 0.988281 24.1797 0.988281 22.9688ZM11.3828 17.4258C11.6406 17.4258 11.8594 17.3359 12.0391 17.1562C12.2266 16.9766 12.3203 16.7656 12.3203 16.5234V4.59375L12.25 2.84766L12.9062 3.53906L14.7109 5.47266C14.875 5.66016 15.0859 5.75391 15.3438 5.75391C15.5859 5.75391 15.7891 5.67578 15.9531 5.51953C16.1172 5.36328 16.1992 5.16797 16.1992 4.93359C16.1992 4.70703 16.1094 4.5 15.9297 4.3125L12.0625 0.585938C11.9453 0.46875 11.832 0.390625 11.7227 0.351562C11.6211 0.304688 11.5078 0.28125 11.3828 0.28125C11.2656 0.28125 11.1523 0.304688 11.043 0.351562C10.9414 0.390625 10.8281 0.46875 10.7031 0.585938L6.84766 4.3125C6.66016 4.5 6.56641 4.70703 6.56641 4.93359C6.56641 5.16797 6.64453 5.36328 6.80078 5.51953C6.96484 5.67578 7.16797 5.75391 7.41016 5.75391C7.67578 5.75391 7.89062 5.66016 8.05469 5.47266L9.87109 3.53906L10.5273 2.84766L10.457 4.59375V16.5234C10.457 16.7656 10.5469 16.9766 10.7266 17.1562C10.9141 17.3359 11.1328 17.4258 11.3828 17.4258Z" fill="white"/>
</svg>
